<?xml version="1.0" encoding="UTF-8" standalone="no"?>
<!-- Created with Inkscape (http://www.inkscape.org/) -->
<svg width="5.7253327mm" height="5.726181mm" viewBox="0 0 5.7253327 5.726181" version="1.1" id="svg1" xml:space="preserve" xmlns:inkscape="http://www.inkscape.org/namespaces/inkscape" xmlns:sodipodi="http://sodipodi.sourceforge.net/DTD/sodipodi-0.dtd" xmlns="http://www.w3.org/2000/svg" xmlns:svg="http://www.w3.org/2000/svg"><sodipodi:namedview id="namedview1" pagecolor="#ffffff" bordercolor="#666666" borderopacity="1.0" inkscape:showpageshadow="2" inkscape:pageopacity="0.0" inkscape:pagecheckerboard="0" inkscape:deskcolor="#d1d1d1" inkscape:document-units="mm"/><defs id="defs1"><style id="style1">
      .st0 {
        fill: #607d8b;
      }

      .st1 {
        fill: #1f2e54;
      }

      .st2 {
        fill: #37474f;
      }

      .st3 {
        fill: #fff;
      }

      .st4 {
        fill: #00bcd4;
      }

      .st5 {
        fill: #f5f5f5;
      }

      .st6 {
        fill: #cfd8dc;
      }

      .st7 {
        fill: #02a9f4;
      }
    </style></defs><g inkscape:label="Capa 1" inkscape:groupmode="layer" id="layer1" transform="translate(-37.308694,-64.75144)"><g id="g2" transform="matrix(0.0111811,0,0,0.0111811,35.802124,64.044458)" inkscape:export-filename="eva.svg" inkscape:export-xdpi="300" inkscape:export-ydpi="300"><g id="Page-1"><g id="_x30_40---Bot-Winking"><path id="Shape" class="st5" d="m 638.22,341.86 c 0,168.73 -110.8,224.97 -247.47,224.97 -136.67,0 -247.47,-56.24 -247.47,-224.97 0,-157.47 110.8,-269.96 247.47,-269.96 136.67,0 247.47,112.49 247.47,269.96 z"/><path id="Shape1" class="st6" d="m 390.75,71.9 c -4.3,0 -8.56,0.11 -12.8,0.33 130.72,6.83 234.67,117.1 234.67,269.65 0,163.4 -103.94,221.3 -234.67,224.78 4.24,0.11 8.5,0.17 12.8,0.17 136.67,0 247.47,-56.24 247.47,-224.97 C 638.22,184.39 527.42,71.9 390.75,71.9 Z"/><path id="Rectangle-path" class="st0" d="m 296.88,251.1 h 187.73 c 65.98,0 119.47,53.49 119.47,119.47 v 0 c 0,65.98 -53.49,119.47 -119.47,119.47 H 296.88 c -65.98,0 -119.47,-53.49 -119.47,-119.47 v 0 c 0,-65.98 53.49,-119.47 119.47,-119.47 z"/><path id="Shape2" class="st2" d="m 484.62,251.1 h -25.6 c 65.98,0 119.47,53.49 119.47,119.47 0,65.98 -53.49,119.47 -119.47,119.47 h 25.6 c 65.98,0 119.47,-53.49 119.47,-119.47 0,-65.98 -53.49,-119.47 -119.47,-119.47 z"/><circle id="Oval" class="st7" cx="194.48" cy="88.970001" r="17.07"/><circle id="Oval1" class="st7" cx="587.02002" cy="88.970001" r="17.07"/><circle id="Oval2" class="st4" cx="271.28" cy="344.97" r="34.130001"/><g id="g1"><path id="Shape3" d="m 296.88,242.57 c -70.69,0 -128,57.31 -128,128 0,70.69 57.31,128 128,128 h 187.73 c 70.69,0 128,-57.31 128,-128 0,-70.69 -57.31,-128 -128,-128 z m 298.67,128 c -0.07,61.24 -49.7,110.86 -110.93,110.93 H 296.89 c -61.27,0 -110.93,-49.67 -110.93,-110.93 0,-61.26 49.67,-110.93 110.93,-110.93 h 187.73 c 61.24,0.07 110.86,49.7 110.93,110.93 z"/><path id="Shape4" d="m 365.15,225.5 h 51.2 c 4.71,0 8.53,-3.82 8.53,-8.53 0,-4.71 -3.82,-8.53 -8.53,-8.53 h -51.2 c -4.71,0 -8.53,3.82 -8.53,8.53 0,4.71 3.82,8.53 8.53,8.53 z"/><path id="Shape5" d="m 382.22,199.9 h 17.07 c 4.71,0 8.53,-3.82 8.53,-8.53 0,-4.71 -3.82,-8.53 -8.53,-8.53 h -17.07 c -4.71,0 -8.53,3.82 -8.53,8.53 0,4.71 3.82,8.53 8.53,8.53 z"/><path id="Shape6" d="m 595.55,112.99 c 11.76,-4.16 18.81,-16.18 16.7,-28.46 -2.11,-12.28 -12.76,-21.27 -25.23,-21.27 -12.47,0 -23.12,8.98 -25.23,21.27 -2.11,12.29 4.94,24.31 16.7,28.46 v 35.84 C 531.54,94.1 462.86,62.84 390.76,63.36 318.66,62.83 249.98,94.08 203.03,148.8 v -35.84 c 11.76,-4.16 18.81,-16.18 16.7,-28.46 -2.11,-12.28 -12.76,-21.27 -25.23,-21.27 -12.47,0 -23.12,8.98 -25.23,21.27 -2.11,12.29 4.94,24.31 16.7,28.46 v 57.75 c -34.16,50.47 -52.03,110.2 -51.2,171.14 0,152.76 88.52,233.51 256,233.51 167.48,0 256,-80.74 256,-233.51 0.82,-60.93 -17.05,-120.65 -51.2,-171.11 v -57.75 z m -8.53,-32.56 c 4.71,0 8.53,3.82 8.53,8.53 0,4.71 -3.82,8.53 -8.53,8.53 -4.71,0 -8.53,-3.82 -8.53,-8.53 0,-4.71 3.82,-8.53 8.53,-8.53 z m -392.54,0 c 4.71,0 8.53,3.82 8.53,8.53 0,4.71 -3.82,8.53 -8.53,8.53 -4.71,0 -8.53,-3.82 -8.53,-8.53 0,-4.71 3.82,-8.53 8.53,-8.53 z M 390.75,558.3 c -109,0 -238.93,-37.55 -238.93,-216.44 0,-149.03 102.72,-261.43 238.93,-261.43 136.21,0 238.93,112.39 238.93,261.43 0,178.89 -129.94,216.44 -238.93,216.44 z"/><path id="Shape7" d="m 271.28,302.3 c -23.56,0 -42.67,19.1 -42.67,42.67 0,23.57 19.1,42.67 42.67,42.67 23.57,0 42.67,-19.1 42.67,-42.67 -0.03,-23.55 -19.11,-42.64 -42.67,-42.67 z m 0,68.27 c -14.14,0 -25.6,-11.46 -25.6,-25.6 0,-14.14 11.46,-25.6 25.6,-25.6 14.14,0 25.6,11.46 25.6,25.6 0,14.14 -11.46,25.6 -25.6,25.6 z"/><path id="Shape8" d="m 427.44,415.71 c -10.12,9.06 -23.12,14.23 -36.69,14.59 -13.57,-0.36 -26.58,-5.53 -36.69,-14.58 -3.35,-3.23 -8.68,-3.18 -11.96,0.12 -3.28,3.3 -3.33,8.62 -0.09,11.96 13.3,12.28 30.64,19.24 48.74,19.57 18.08,-0.33 35.41,-7.3 48.7,-19.57 3.03,-3.36 2.9,-8.51 -0.29,-11.72 -3.19,-3.21 -8.33,-3.37 -11.72,-0.37 z"/><path id="Shape9" d="m 467.55,344.97 c -0.02,3.25 1.81,6.23 4.72,7.68 l 51.2,25.6 c 4.22,2.11 9.35,0.4 11.45,-3.82 2.1,-4.22 0.4,-9.35 -3.82,-11.45 l -35.93,-18.01 35.93,-17.92 c 4.22,-2.11 5.93,-7.23 3.82,-11.45 -2.11,-4.22 -7.23,-5.93 -11.45,-3.82 l -51.2,25.6 c -2.88,1.44 -4.7,4.38 -4.72,7.59 z"/></g></g></g></g></g></svg>