<?xml version="1.0" standalone="no"?>
<!DOCTYPE svg PUBLIC "-//W3C//DTD SVG 20010904//EN"
 "http://www.w3.org/TR/2001/REC-SVG-20010904/DTD/svg10.dtd">
<svg version="1.0" xmlns="http://www.w3.org/2000/svg"
 width="704.000000pt" height="707.000000pt" viewBox="0 0 704.000000 707.000000"
 preserveAspectRatio="xMidYMid meet">
<metadata>
Created by potrace 1.16, written by Peter Selinger 2001-2019
</metadata>
<g transform="translate(0.000000,353.500000) scale(0.100000,-0.100000)"
fill="#000000" stroke="none">
<path d="m4235 2802 c348 -57 574 -127 850 -262 528 -258 916 -663 1150 -1200
158 -362 236 -745 252 -1230 21 -678 -124 -1301 -414 -1780 -345 -568 -928
-971 -1628 -1124 -265 -58 -224 -56 -1330 -56 l-1020 0 -57 27 c-74 34 -152
112 -186 186 l-27 57 0 1940 0 1940 27 57 c34 74 112 152 186 186 l57 27 710
0 c546 0 727 -3 785 -13 716 -127 1170 -546 1301 -1199 27 -137 37 -431 20
-584 -83 -721 -526 -1201 -1251 -1354 -112 -24 -153 -27 -396 -32 l-271 -5 -6
53 c-4 30 -7 199 -7 375 l0 322 248 5 c216 3 257 7 332 27 319 86 504 259 582
545 19 69 22 107 22 280 1 178 -1 209 -22 283 -73 268 -255 437 -557 519
l-100 27 -457 4 -458 3 0 -1465 0 -1466 723 0 c580 0 742 3 825 15 463 66 884
279 1145 580 332 383 496 943 474 1610 -27 772 -275 1305 -765 1643 -208 143
-486 252 -792 309 -100 19 -58 19 -2797 22 l-593 1 0 375 0 376 1673 -4 c1500
-3 1682 -5 1772 -20z m-2825 -3432 l0 -2245 -375 0 -375 0 0 2245 0 2245 375
0 375 0 0 -2245z"/>
</g>
</svg>
